<svg width="498" height="174" viewBox="0 0 498 174" fill="none" xmlns="http://www.w3.org/2000/svg">
<path d="M220.958 15.4159L199.802 19.7098C198.836 19.9056 198.072 20.3906 197.595 21.1099C197.117 21.831 196.968 22.7221 197.164 23.6879L201.381 44.4614C202.067 47.8402 203.582 50.2739 205.884 51.6946C207.406 52.6329 209.231 53.1033 211.336 53.1016C212.408 53.0999 213.552 52.9763 214.765 52.7308L227.987 50.0473L226.395 42.2062L213.532 44.8168C210.9 45.3516 210.044 45.0597 209.444 42.1032L208.992 39.8738L223.87 36.8538L222.298 29.1012L207.417 32.1212L206.289 26.5576L222.549 23.2569L220.958 15.4159ZM176.291 62.329C174.667 63.6502 172.778 64.294 171.11 64.0966C168.998 63.8554 167.714 62.9901 165.611 60.3941L153.499 45.5009L146.967 50.8104L160.158 67.0393C162.963 70.4774 166.157 72.3162 169.926 72.6622C170.37 72.7034 170.811 72.7265 171.248 72.73C174.9 72.7617 178.29 71.4749 181.577 68.8155C185.238 65.8246 187.247 62.3522 187.718 58.1999C188.148 54.4382 186.999 50.9341 184.204 47.4874L171.015 31.2619L164.485 36.5714L176.592 51.4706C178.702 54.0588 179.285 55.4941 179.091 57.6145C178.943 59.285 177.923 61.0028 176.291 62.329ZM290.502 91.6055L294.837 86.2522C281.168 69.9091 258.761 58.8584 234.063 58.8584C209.364 58.8584 186.957 69.9091 173.288 86.2522L177.623 91.6055C190.037 76.1577 211.153 65.5371 234.063 65.5371C256.973 65.5371 278.089 76.1586 290.502 91.6055ZM249.964 26.4572L244.641 47.0024C244.393 47.9553 244.495 48.8515 244.932 49.5949C245.368 50.3383 246.102 50.8611 247.054 51.1075L251.895 52.3625L255.325 39.0755L269.997 42.8767L271.979 35.2331L257.303 31.431L257.873 29.2351C258.628 26.3224 259.497 26.0778 262.094 26.7508L274.773 30.0361L276.776 22.3049L263.74 18.9269C256.594 17.0753 251.702 19.7502 249.964 26.4572ZM332.351 39.9872C330.13 37.7638 327.815 35.6065 325.405 33.5257C300.361 11.9066 267.922 -7.62939e-05 234.063 -7.62939e-05C200.204 -7.62939e-05 167.764 11.9066 142.72 33.5257C140.309 35.6065 137.996 37.7629 135.773 39.9863L140.249 45.5138C142.509 43.2252 144.87 41.0087 147.339 38.878C171.101 18.3672 201.9 7.07092 234.063 7.07092C266.225 7.07092 297.024 18.3672 320.785 38.878C323.254 41.0087 325.617 43.2252 327.876 45.5138L332.351 39.9872ZM293.713 72.942L295.163 67.9321L288.917 63.2656L293.947 59.6618L296.86 61.8509L300.168 50.6937L280.973 63.1085L273.103 58.6558L303.214 39.1691C304.374 38.4171 305.963 37.7535 307.971 39.3004L309.258 40.2919C311.288 41.8543 310.998 43.6433 310.603 44.8537L300.608 79.2524L293.713 72.942ZM492.55 111.522L496.055 105.595H497.363V116.901H496.103V107.904H496.071L493.115 112.879H491.952L488.98 107.904H488.948V116.901H487.688V105.595H488.996L492.517 111.522H492.55ZM482.23 116.901H480.938V106.693H477.465V105.595H485.687V106.693H482.23V116.901ZM395.978 162.543C395.978 162.543 403.023 156.112 405.364 153.975C416.371 143.926 422.661 134.753 422.661 125.103C422.661 113.181 413.653 104.613 399.775 104.613C385.712 104.613 376.722 113.274 377.001 126.779L388.457 127.431C388.084 120.259 392.138 115.044 399.216 115.044C406.015 115.044 410.459 119.328 410.273 126.033C410.087 132.553 405.199 139.19 397.354 146.524C392.322 151.228 377.379 164.025 377.379 164.025V173.068H423.235V162.543H395.978ZM294.066 162.543C294.066 162.543 301.111 156.112 303.452 153.975C314.459 143.926 320.749 134.753 320.749 125.103C320.749 113.181 311.741 104.613 297.863 104.613C283.8 104.613 274.81 113.274 275.089 126.779L286.545 127.431C286.172 120.259 290.226 115.044 297.304 115.044C304.103 115.044 308.547 119.328 308.362 126.033C308.175 132.553 303.287 139.19 295.442 146.524C290.41 151.228 275.467 164.025 275.467 164.025V173.068H321.323V162.543H294.066ZM468.125 146.524V105.544H452.198L423.728 148.107V156.955H448.089L449.702 146.524H436.953L456.274 116.937L456.282 116.906V116.926L456.297 116.906V146.524H456.289L456.293 156.955H456.297V173.068H468.125V156.955H477.345V146.524H468.125ZM252.013 138.765C252.013 149.631 246.463 157.091 237.661 158.667L239.974 173.632C258.174 171.277 269.868 157.925 269.868 138.765C269.868 117.696 255.602 103.619 234.063 103.619C212.523 103.619 198.256 117.696 198.256 138.765C198.256 157.925 209.952 171.277 228.151 173.632L230.464 158.667C221.662 157.091 216.112 149.631 216.112 138.765C216.112 126.672 223.198 118.547 234.063 118.547C244.926 118.547 252.013 126.672 252.013 138.765ZM189.911 127.617C189.911 114.95 181.063 105.543 164.391 105.543H131.794V173.068H148.558V120.538H162.808C168.489 120.538 172.308 123.333 172.308 128.921C172.308 134.136 169.142 139.878 162.808 139.878H155.094L167.835 173.068H185.799L173.475 150.869C183.812 148.726 189.911 138.514 189.911 127.617ZM0 173.068H48.6172V158.632H16.7646V146.245H45.8229V132.647H16.7646V120.073H48.6172V105.544H0V173.068ZM361.671 139.279C361.671 122.753 357.48 115.155 349.47 115.155C340.901 115.155 337.176 123.893 337.176 138.994C337.176 155.711 341.367 163.309 349.47 163.309C357.945 163.309 361.671 154.571 361.671 139.279ZM374.058 139.279C374.058 162.359 364.65 173.947 349.47 173.947C332.985 173.947 324.696 160.935 324.696 138.994C324.696 116.105 333.915 104.613 349.47 104.613C365.489 104.613 374.058 117.434 374.058 139.279ZM61.7591 105.544H78.5237V147.549C78.5237 154.999 83.2735 159.005 90.2586 159.005C97.9889 159.005 101.994 154.44 101.994 147.549V105.544H118.665V148.2C118.665 163.847 108.328 173.999 90.2586 173.999C73.0279 173.999 61.7591 164.499 61.7591 148.2V105.544Z" fill="white"/>
</svg>
